<svg width="163.8200256347656px" height="124.03984985351562px" xmlns="http://www.w3.org/2000/svg" viewBox="168.0899871826172 12.98007507324219 163.8200256347656 124.03984985351562" style="background:#051103" preserveAspectRatio="xMidYMid"><defs><linearGradient id="editing-glowing-gradient" x1="0.8146601955249185" x2="0.18533980447508147" y1="0.8885729807284856" y2="0.11142701927151444"><stop offset="0" stop-color="#67ff43"></stop><stop offset="1" stop-color="#90ffff"></stop></linearGradient><filter id="editing-glowing" x="-100%" y="-100%" width="300%" height="300%"><feGaussianBlur in="SourceGraphic" result="blur" stdDeviation="10"></feGaussianBlur><feMerge><feMergeNode in="blur"></feMergeNode><feMergeNode in="SourceGraphic"></feMergeNode></feMerge></filter></defs><g filter="url(#editing-glowing)"><g transform="translate(197.4499979019165, 97.40500068664551)"><path d="M33.91-19.19L12.16-19.19L12.16-19.19Q10.84-19.19 9.67-19.70L9.67-19.70L9.67-19.70Q8.50-20.22 7.63-21.08L7.63-21.08L7.63-21.08Q6.75-21.94 6.25-23.11L6.25-23.11L6.25-23.11Q5.75-24.28 5.75-25.59L5.75-25.59L5.75-38.41L5.75-38.41Q5.75-39.72 6.25-40.89L6.25-40.89L6.25-40.89Q6.75-42.06 7.63-42.92L7.63-42.92L7.63-42.92Q8.50-43.78 9.67-44.30L9.67-44.30L9.67-44.30Q10.84-44.81 12.16-44.81L12.16-44.81L33.91-44.81L33.91-44.81Q35.22-44.81 36.39-44.30L36.39-44.30L36.39-44.30Q37.56-43.78 38.44-42.92L38.44-42.92L38.44-42.92Q39.31-42.06 39.81-40.89L39.81-40.89L39.81-40.89Q40.31-39.72 40.31-38.41L40.31-38.41L40.31-32.63L33.91-32.63L33.91-38.41L12.16-38.41L12.16-25.59L33.91-25.59L33.91-25.59Q35.22-25.59 36.39-25.09L36.39-25.09L36.39-25.09Q37.56-24.59 38.44-23.72L38.44-23.72L38.44-23.72Q39.31-22.84 39.81-21.67L39.81-21.67L39.81-21.67Q40.31-20.50 40.31-19.19L40.31-19.19L40.31-6.41L40.31-6.41Q40.31-5.09 39.81-3.92L39.81-3.92L39.81-3.92Q39.31-2.75 38.44-1.88L38.44-1.88L38.44-1.88Q37.56-1 36.39-0.50L36.39-0.50L36.39-0.50Q35.22 0 33.91 0L33.91 0L11.53 0L11.53 0Q10.22 0 9.05-0.50L9.05-0.50L9.05-0.50Q7.88-1 7-1.88L7-1.88L7-1.88Q6.13-2.75 5.63-3.92L5.63-3.92L5.63-3.92Q5.13-5.09 5.13-6.41L5.13-6.41L5.13-12.16L11.53-12.16L11.53-6.41L33.91-6.41L33.91-19.19ZM76.88 0L74.97 0L58.25-32.84L58.25 0L51.84 0L51.84-44.81L58.84-44.81L75.91-11.06L93-44.81L99.97-44.81L99.97 0L93.59 0L93.59-32.84L76.88 0Z" fill="url(#editing-glowing-gradient)"></path></g></g><style>text {
  font-size: 64px;
  font-family: Arial Black;
  dominant-baseline: central;
  text-anchor: middle;
}</style></svg>